<mxfile host="app.diagrams.net" agent="Mozilla/5.0 (Windows NT 10.0; Win64; x64) AppleWebKit/537.36 (KHTML, like Gecko) Chrome/126.0.0.0 Safari/537.36" version="24.7.4">
  <diagram name="第 1 页" id="E0H0ATBrhwGegzQFuOhN">
    <mxGraphModel dx="1434" dy="772" grid="1" gridSize="10" guides="1" tooltips="1" connect="1" arrows="1" fold="1" page="1" pageScale="1" pageWidth="827" pageHeight="1169" math="0" shadow="0">
      <root>
        <mxCell id="0" />
        <mxCell id="1" parent="0" />
        <mxCell id="cWLhDgDuP5fxQfQq8TEG-3" value="" style="edgeStyle=orthogonalEdgeStyle;rounded=0;orthogonalLoop=1;jettySize=auto;html=1;" edge="1" parent="1" source="cWLhDgDuP5fxQfQq8TEG-1" target="cWLhDgDuP5fxQfQq8TEG-2">
          <mxGeometry relative="1" as="geometry" />
        </mxCell>
        <mxCell id="cWLhDgDuP5fxQfQq8TEG-1" value="潮鹰视频平台" style="shape=process;whiteSpace=wrap;html=1;backgroundOutline=1;" vertex="1" parent="1">
          <mxGeometry x="354" y="50" width="120" height="60" as="geometry" />
        </mxCell>
        <mxCell id="cWLhDgDuP5fxQfQq8TEG-5" value="" style="edgeStyle=orthogonalEdgeStyle;rounded=0;orthogonalLoop=1;jettySize=auto;html=1;" edge="1" parent="1" source="cWLhDgDuP5fxQfQq8TEG-2" target="cWLhDgDuP5fxQfQq8TEG-4">
          <mxGeometry relative="1" as="geometry" />
        </mxCell>
        <mxCell id="cWLhDgDuP5fxQfQq8TEG-7" value="" style="edgeStyle=orthogonalEdgeStyle;rounded=0;orthogonalLoop=1;jettySize=auto;html=1;" edge="1" parent="1" source="cWLhDgDuP5fxQfQq8TEG-2" target="cWLhDgDuP5fxQfQq8TEG-6">
          <mxGeometry relative="1" as="geometry" />
        </mxCell>
        <mxCell id="cWLhDgDuP5fxQfQq8TEG-9" value="" style="edgeStyle=orthogonalEdgeStyle;rounded=0;orthogonalLoop=1;jettySize=auto;html=1;" edge="1" parent="1" source="cWLhDgDuP5fxQfQq8TEG-2" target="cWLhDgDuP5fxQfQq8TEG-8">
          <mxGeometry relative="1" as="geometry" />
        </mxCell>
        <mxCell id="cWLhDgDuP5fxQfQq8TEG-2" value="潮鹰流" style="shape=step;perimeter=stepPerimeter;whiteSpace=wrap;html=1;fixedSize=1;" vertex="1" parent="1">
          <mxGeometry x="354" y="180" width="120" height="80" as="geometry" />
        </mxCell>
        <mxCell id="cWLhDgDuP5fxQfQq8TEG-15" value="" style="edgeStyle=orthogonalEdgeStyle;rounded=0;orthogonalLoop=1;jettySize=auto;html=1;" edge="1" parent="1" source="cWLhDgDuP5fxQfQq8TEG-4" target="cWLhDgDuP5fxQfQq8TEG-14">
          <mxGeometry relative="1" as="geometry" />
        </mxCell>
        <mxCell id="cWLhDgDuP5fxQfQq8TEG-17" value="" style="edgeStyle=orthogonalEdgeStyle;rounded=0;orthogonalLoop=1;jettySize=auto;html=1;" edge="1" parent="1" source="cWLhDgDuP5fxQfQq8TEG-4" target="cWLhDgDuP5fxQfQq8TEG-16">
          <mxGeometry relative="1" as="geometry" />
        </mxCell>
        <mxCell id="cWLhDgDuP5fxQfQq8TEG-4" value="中汇流" style="shape=step;perimeter=stepPerimeter;whiteSpace=wrap;html=1;fixedSize=1;" vertex="1" parent="1">
          <mxGeometry x="130" y="290" width="120" height="80" as="geometry" />
        </mxCell>
        <mxCell id="cWLhDgDuP5fxQfQq8TEG-28" value="" style="edgeStyle=orthogonalEdgeStyle;rounded=0;orthogonalLoop=1;jettySize=auto;html=1;" edge="1" parent="1" source="cWLhDgDuP5fxQfQq8TEG-6" target="cWLhDgDuP5fxQfQq8TEG-27">
          <mxGeometry relative="1" as="geometry" />
        </mxCell>
        <mxCell id="cWLhDgDuP5fxQfQq8TEG-36" value="" style="edgeStyle=orthogonalEdgeStyle;rounded=0;orthogonalLoop=1;jettySize=auto;html=1;" edge="1" parent="1" source="cWLhDgDuP5fxQfQq8TEG-6" target="cWLhDgDuP5fxQfQq8TEG-35">
          <mxGeometry relative="1" as="geometry" />
        </mxCell>
        <mxCell id="cWLhDgDuP5fxQfQq8TEG-6" value="唯识流" style="shape=step;perimeter=stepPerimeter;whiteSpace=wrap;html=1;fixedSize=1;" vertex="1" parent="1">
          <mxGeometry x="354" y="340" width="120" height="80" as="geometry" />
        </mxCell>
        <mxCell id="cWLhDgDuP5fxQfQq8TEG-44" value="" style="edgeStyle=orthogonalEdgeStyle;rounded=0;orthogonalLoop=1;jettySize=auto;html=1;" edge="1" parent="1" source="cWLhDgDuP5fxQfQq8TEG-8" target="cWLhDgDuP5fxQfQq8TEG-43">
          <mxGeometry relative="1" as="geometry" />
        </mxCell>
        <mxCell id="cWLhDgDuP5fxQfQq8TEG-54" value="" style="edgeStyle=orthogonalEdgeStyle;rounded=0;orthogonalLoop=1;jettySize=auto;html=1;" edge="1" parent="1" source="cWLhDgDuP5fxQfQq8TEG-8" target="cWLhDgDuP5fxQfQq8TEG-53">
          <mxGeometry relative="1" as="geometry" />
        </mxCell>
        <mxCell id="cWLhDgDuP5fxQfQq8TEG-8" value="大疆流" style="shape=step;perimeter=stepPerimeter;whiteSpace=wrap;html=1;fixedSize=1;" vertex="1" parent="1">
          <mxGeometry x="750" y="290" width="120" height="80" as="geometry" />
        </mxCell>
        <mxCell id="cWLhDgDuP5fxQfQq8TEG-10" value="流命名规则" style="swimlane;fontStyle=0;childLayout=stackLayout;horizontal=1;startSize=30;horizontalStack=0;resizeParent=1;resizeParentMax=0;resizeLast=0;collapsible=1;marginBottom=0;whiteSpace=wrap;html=1;" vertex="1" parent="1">
          <mxGeometry x="640" y="40" width="140" height="120" as="geometry" />
        </mxCell>
        <mxCell id="cWLhDgDuP5fxQfQq8TEG-11" value="airport：机场流" style="text;strokeColor=none;fillColor=none;align=left;verticalAlign=middle;spacingLeft=4;spacingRight=4;overflow=hidden;points=[[0,0.5],[1,0.5]];portConstraint=eastwest;rotatable=0;whiteSpace=wrap;html=1;" vertex="1" parent="cWLhDgDuP5fxQfQq8TEG-10">
          <mxGeometry y="30" width="140" height="30" as="geometry" />
        </mxCell>
        <mxCell id="cWLhDgDuP5fxQfQq8TEG-12" value="live：其他平台飞机流" style="text;strokeColor=none;fillColor=none;align=left;verticalAlign=middle;spacingLeft=4;spacingRight=4;overflow=hidden;points=[[0,0.5],[1,0.5]];portConstraint=eastwest;rotatable=0;whiteSpace=wrap;html=1;" vertex="1" parent="cWLhDgDuP5fxQfQq8TEG-10">
          <mxGeometry y="60" width="140" height="30" as="geometry" />
        </mxCell>
        <mxCell id="cWLhDgDuP5fxQfQq8TEG-13" value="origin：自己平台飞机流" style="text;strokeColor=none;fillColor=none;align=left;verticalAlign=middle;spacingLeft=4;spacingRight=4;overflow=hidden;points=[[0,0.5],[1,0.5]];portConstraint=eastwest;rotatable=0;whiteSpace=wrap;html=1;" vertex="1" parent="cWLhDgDuP5fxQfQq8TEG-10">
          <mxGeometry y="90" width="140" height="30" as="geometry" />
        </mxCell>
        <mxCell id="cWLhDgDuP5fxQfQq8TEG-19" value="" style="edgeStyle=orthogonalEdgeStyle;rounded=0;orthogonalLoop=1;jettySize=auto;html=1;" edge="1" parent="1" source="cWLhDgDuP5fxQfQq8TEG-14" target="cWLhDgDuP5fxQfQq8TEG-18">
          <mxGeometry relative="1" as="geometry" />
        </mxCell>
        <mxCell id="cWLhDgDuP5fxQfQq8TEG-14" value="1.4G" style="ellipse;whiteSpace=wrap;html=1;" vertex="1" parent="1">
          <mxGeometry x="150" y="430" width="80" height="80" as="geometry" />
        </mxCell>
        <mxCell id="cWLhDgDuP5fxQfQq8TEG-24" value="" style="edgeStyle=orthogonalEdgeStyle;rounded=0;orthogonalLoop=1;jettySize=auto;html=1;entryX=0;entryY=0.5;entryDx=0;entryDy=0;exitX=0.5;exitY=1;exitDx=0;exitDy=0;" edge="1" parent="1" source="cWLhDgDuP5fxQfQq8TEG-16" target="cWLhDgDuP5fxQfQq8TEG-18">
          <mxGeometry relative="1" as="geometry" />
        </mxCell>
        <mxCell id="cWLhDgDuP5fxQfQq8TEG-16" value="4G" style="ellipse;whiteSpace=wrap;html=1;" vertex="1" parent="1">
          <mxGeometry x="20" y="410" width="80" height="80" as="geometry" />
        </mxCell>
        <mxCell id="cWLhDgDuP5fxQfQq8TEG-18" value="M300,盐官飞机" style="whiteSpace=wrap;html=1;" vertex="1" parent="1">
          <mxGeometry x="130" y="600" width="120" height="60" as="geometry" />
        </mxCell>
        <mxCell id="cWLhDgDuP5fxQfQq8TEG-25" value="中汇操控平台" style="shape=process;whiteSpace=wrap;html=1;backgroundOutline=1;" vertex="1" parent="1">
          <mxGeometry x="130" y="740" width="120" height="60" as="geometry" />
        </mxCell>
        <mxCell id="cWLhDgDuP5fxQfQq8TEG-26" value="" style="endArrow=classic;html=1;rounded=0;exitX=0.5;exitY=1;exitDx=0;exitDy=0;entryX=0.5;entryY=0;entryDx=0;entryDy=0;" edge="1" parent="1" source="cWLhDgDuP5fxQfQq8TEG-18" target="cWLhDgDuP5fxQfQq8TEG-25">
          <mxGeometry width="50" height="50" relative="1" as="geometry">
            <mxPoint x="320" y="830" as="sourcePoint" />
            <mxPoint x="370" y="780" as="targetPoint" />
          </mxGeometry>
        </mxCell>
        <mxCell id="cWLhDgDuP5fxQfQq8TEG-30" value="" style="edgeStyle=orthogonalEdgeStyle;rounded=0;orthogonalLoop=1;jettySize=auto;html=1;" edge="1" parent="1" source="cWLhDgDuP5fxQfQq8TEG-27" target="cWLhDgDuP5fxQfQq8TEG-29">
          <mxGeometry relative="1" as="geometry" />
        </mxCell>
        <mxCell id="cWLhDgDuP5fxQfQq8TEG-27" value="1.4G" style="ellipse;whiteSpace=wrap;html=1;" vertex="1" parent="1">
          <mxGeometry x="374" y="470" width="80" height="80" as="geometry" />
        </mxCell>
        <mxCell id="cWLhDgDuP5fxQfQq8TEG-29" value="M300，丁桥" style="whiteSpace=wrap;html=1;" vertex="1" parent="1">
          <mxGeometry x="354" y="600" width="120" height="60" as="geometry" />
        </mxCell>
        <mxCell id="cWLhDgDuP5fxQfQq8TEG-33" value="唯识操控平台" style="shape=process;whiteSpace=wrap;html=1;backgroundOutline=1;" vertex="1" parent="1">
          <mxGeometry x="354" y="740" width="120" height="60" as="geometry" />
        </mxCell>
        <mxCell id="cWLhDgDuP5fxQfQq8TEG-34" value="" style="endArrow=classic;html=1;rounded=0;entryX=0.5;entryY=0;entryDx=0;entryDy=0;" edge="1" parent="1" source="cWLhDgDuP5fxQfQq8TEG-29" target="cWLhDgDuP5fxQfQq8TEG-33">
          <mxGeometry width="50" height="50" relative="1" as="geometry">
            <mxPoint x="400" y="720" as="sourcePoint" />
            <mxPoint x="450" y="670" as="targetPoint" />
          </mxGeometry>
        </mxCell>
        <mxCell id="cWLhDgDuP5fxQfQq8TEG-38" value="" style="edgeStyle=orthogonalEdgeStyle;rounded=0;orthogonalLoop=1;jettySize=auto;html=1;" edge="1" parent="1" source="cWLhDgDuP5fxQfQq8TEG-35" target="cWLhDgDuP5fxQfQq8TEG-37">
          <mxGeometry relative="1" as="geometry" />
        </mxCell>
        <mxCell id="cWLhDgDuP5fxQfQq8TEG-35" value="1.4G" style="ellipse;whiteSpace=wrap;html=1;" vertex="1" parent="1">
          <mxGeometry x="540" y="460" width="80" height="80" as="geometry" />
        </mxCell>
        <mxCell id="cWLhDgDuP5fxQfQq8TEG-37" value="M30" style="whiteSpace=wrap;html=1;" vertex="1" parent="1">
          <mxGeometry x="520" y="600" width="120" height="60" as="geometry" />
        </mxCell>
        <mxCell id="cWLhDgDuP5fxQfQq8TEG-40" value="" style="endArrow=classic;html=1;rounded=0;entryX=0.557;entryY=-0.008;entryDx=0;entryDy=0;entryPerimeter=0;exitX=0.5;exitY=1;exitDx=0;exitDy=0;" edge="1" parent="1" source="cWLhDgDuP5fxQfQq8TEG-37" target="cWLhDgDuP5fxQfQq8TEG-33">
          <mxGeometry width="50" height="50" relative="1" as="geometry">
            <mxPoint x="520" y="720" as="sourcePoint" />
            <mxPoint x="570" y="670" as="targetPoint" />
          </mxGeometry>
        </mxCell>
        <mxCell id="cWLhDgDuP5fxQfQq8TEG-46" value="操控" style="edgeLabel;html=1;align=center;verticalAlign=middle;resizable=0;points=[];" vertex="1" connectable="0" parent="cWLhDgDuP5fxQfQq8TEG-40">
          <mxGeometry x="-0.2275" y="3" relative="1" as="geometry">
            <mxPoint as="offset" />
          </mxGeometry>
        </mxCell>
        <mxCell id="cWLhDgDuP5fxQfQq8TEG-43" value="4G" style="ellipse;whiteSpace=wrap;html=1;" vertex="1" parent="1">
          <mxGeometry x="660" y="460" width="80" height="80" as="geometry" />
        </mxCell>
        <mxCell id="cWLhDgDuP5fxQfQq8TEG-45" value="" style="endArrow=classic;html=1;rounded=0;entryX=1;entryY=0.5;entryDx=0;entryDy=0;" edge="1" parent="1" target="cWLhDgDuP5fxQfQq8TEG-37">
          <mxGeometry width="50" height="50" relative="1" as="geometry">
            <mxPoint x="700" y="540" as="sourcePoint" />
            <mxPoint x="750" y="490" as="targetPoint" />
          </mxGeometry>
        </mxCell>
        <mxCell id="cWLhDgDuP5fxQfQq8TEG-47" value="私有化&lt;br&gt;司空操控平台" style="shape=process;whiteSpace=wrap;html=1;backgroundOutline=1;" vertex="1" parent="1">
          <mxGeometry x="750" y="730" width="120" height="60" as="geometry" />
        </mxCell>
        <mxCell id="cWLhDgDuP5fxQfQq8TEG-48" value="M30" style="whiteSpace=wrap;html=1;" vertex="1" parent="1">
          <mxGeometry x="750" y="600" width="120" height="60" as="geometry" />
        </mxCell>
        <mxCell id="cWLhDgDuP5fxQfQq8TEG-49" value="" style="endArrow=classic;html=1;rounded=0;entryX=0.5;entryY=0;entryDx=0;entryDy=0;exitX=0.5;exitY=1;exitDx=0;exitDy=0;" edge="1" parent="1" source="cWLhDgDuP5fxQfQq8TEG-53" target="cWLhDgDuP5fxQfQq8TEG-48">
          <mxGeometry width="50" height="50" relative="1" as="geometry">
            <mxPoint x="820" y="370" as="sourcePoint" />
            <mxPoint x="870" y="320" as="targetPoint" />
          </mxGeometry>
        </mxCell>
        <mxCell id="cWLhDgDuP5fxQfQq8TEG-50" value="" style="endArrow=classic;html=1;rounded=0;" edge="1" parent="1" source="cWLhDgDuP5fxQfQq8TEG-48" target="cWLhDgDuP5fxQfQq8TEG-47">
          <mxGeometry width="50" height="50" relative="1" as="geometry">
            <mxPoint x="810" y="680" as="sourcePoint" />
            <mxPoint x="860" y="630" as="targetPoint" />
          </mxGeometry>
        </mxCell>
        <mxCell id="cWLhDgDuP5fxQfQq8TEG-51" value="" style="endArrow=classic;html=1;rounded=0;entryX=0.5;entryY=0;entryDx=0;entryDy=0;exitX=0.5;exitY=1;exitDx=0;exitDy=0;" edge="1" parent="1" source="cWLhDgDuP5fxQfQq8TEG-37" target="cWLhDgDuP5fxQfQq8TEG-47">
          <mxGeometry width="50" height="50" relative="1" as="geometry">
            <mxPoint x="740" y="590" as="sourcePoint" />
            <mxPoint x="790" y="540" as="targetPoint" />
          </mxGeometry>
        </mxCell>
        <mxCell id="cWLhDgDuP5fxQfQq8TEG-52" value="操控" style="edgeLabel;html=1;align=center;verticalAlign=middle;resizable=0;points=[];" vertex="1" connectable="0" parent="cWLhDgDuP5fxQfQq8TEG-51">
          <mxGeometry x="-0.0364" relative="1" as="geometry">
            <mxPoint as="offset" />
          </mxGeometry>
        </mxCell>
        <mxCell id="cWLhDgDuP5fxQfQq8TEG-53" value="4G" style="ellipse;whiteSpace=wrap;html=1;aspect=fixed;" vertex="1" parent="1">
          <mxGeometry x="770" y="450" width="80" height="80" as="geometry" />
        </mxCell>
      </root>
    </mxGraphModel>
  </diagram>
</mxfile>
